<?xml version="1.0" standalone="no"?>
<!DOCTYPE svg PUBLIC "-//W3C//DTD SVG 1.1//EN" "http://www.w3.org/Graphics/SVG/1.1/DTD/svg11.dtd">
<svg fill="none" fill-rule="evenodd" stroke="black" stroke-width="0.501" stroke-linejoin="bevel" stroke-miterlimit="10" font-family="Times New Roman" font-size="16" style="font-variant-ligatures:none" xmlns:xlink="http://www.w3.org/1999/xlink" xmlns="http://www.w3.org/2000/svg" version="1.1" overflow="visible" width="332.25pt" height="303pt" viewBox="0 -303 332.25 303">
 <defs>
	</defs>
 <g id="Layer 1" transform="scale(1 -1)">
  <path d="M 102.888,150.501 L 102.831,151.324 L 102.308,156.574 C 102.225,157.605 102.143,158.641 102.084,159.673 C 101.956,161.901 101.837,164.123 101.776,166.354 C 101.711,168.746 101.681,171.146 101.714,173.538 C 101.745,175.775 101.816,178 101.92,180.235 C 101.994,181.841 102.095,183.454 102.226,185.056 C 102.351,186.581 102.485,188.101 102.64,189.624 C 102.764,190.848 102.916,192.07 103.064,193.291 C 103.176,194.209 103.303,195.132 103.439,196.047 C 103.768,198.267 104.121,200.472 104.528,202.679 C 107.108,216.682 111.51,230.427 117.803,243.211 C 119.742,247.15 121.848,250.968 124.127,254.719 C 125.797,257.468 127.586,260.185 129.462,262.799 C 130.416,264.128 131.383,265.451 132.386,266.743 C 137.981,273.954 144.266,280.619 151.462,286.256 C 153.899,288.165 156.495,289.973 159.173,291.526 C 161.404,292.82 163.706,293.969 166.15,294.806 C 164.531,292.535 162.696,290.401 160.843,288.319 C 158.705,285.917 156.521,283.552 154.34,281.189 C 148.707,275.087 143.213,268.864 138.106,262.311 C 130.109,252.052 123.055,240.978 117.474,229.218 C 115.073,224.158 112.894,218.977 111.035,213.692 C 110.454,212.04 109.883,210.377 109.36,208.705 C 109.034,207.663 108.716,206.621 108.404,205.588 C 107.892,203.813 107.388,202.039 106.924,200.248 C 105.87,196.179 104.996,192.065 104.279,187.924 C 104.017,186.408 103.78,184.881 103.573,183.357 C 103.289,181.271 103.031,179.183 102.836,177.087 C 102.282,171.117 102.077,165.142 102.29,159.149 L 102.831,151.324 L 103.105,148.575 C 103.032,149.216 102.951,149.859 102.888,150.501 Z" stroke-width="0.5" stroke="none" fill="#1d9457" fill-rule="evenodd" marker-start="none" marker-end="none" fill-opacity="1.000000"/>
  <path d="M 157.896,46.032 C 155.777,47.768 153.66,49.522 151.612,51.342 C 149.407,53.301 147.241,55.279 145.119,57.329 C 143.855,58.55 142.598,59.788 141.375,61.051 C 138.548,63.97 135.782,66.96 133.172,70.076 C 131.073,72.582 129.052,75.118 127.091,77.733 C 125.151,80.32 123.315,82.987 121.544,85.692 C 119.709,88.494 117.999,91.361 116.36,94.281 C 115.018,96.672 113.778,99.107 112.579,101.572 C 111.098,104.616 109.745,107.764 108.533,110.924 C 105.499,118.836 103.175,127.195 102.388,135.651 C 102.207,137.6 102.14,139.534 102.17,141.49 C 102.206,143.849 102.468,146.3 103.105,148.575 C 104.48,146.153 105.474,143.478 106.399,140.857 C 107.202,138.58 107.932,136.264 108.645,133.957 C 108.959,132.942 109.259,131.918 109.583,130.906 C 109.765,130.338 109.93,129.765 110.107,129.196 C 110.461,128.061 110.81,126.924 111.162,125.788 C 111.728,123.962 112.326,122.148 112.905,120.326 C 113.462,118.572 114.075,116.83 114.67,115.089 C 115.095,113.846 115.545,112.611 115.994,111.376 C 116.33,110.45 116.672,109.523 117.025,108.604 C 117.414,107.592 117.815,106.585 118.205,105.574 C 118.394,105.084 118.6,104.6 118.795,104.112 C 119.538,102.249 120.34,100.411 121.143,98.574 C 121.879,96.889 122.656,95.207 123.456,93.551 C 124.562,91.263 125.691,88.994 126.89,86.753 C 129.313,82.226 131.913,77.801 134.748,73.519 C 143.269,60.647 153.71,48.925 166.099,39.662 C 163.332,41.737 160.571,43.84 157.896,46.032 Z" stroke-width="0.5" stroke="none" fill="#0a6eab" fill-rule="evenodd" marker-start="none" marker-end="none" fill-opacity="1.000000"/>
  <path d="M 243.705,6.537 C 240.545,6.755 237.399,7.097 234.259,7.51 C 232.561,7.733 230.864,7.993 229.176,8.284 C 228.072,8.474 226.969,8.665 225.87,8.883 C 224.425,9.17 222.965,9.45 221.534,9.79 C 220.901,9.94 220.262,10.079 219.628,10.23 C 218.326,10.541 217.027,10.875 215.733,11.22 C 212.056,12.2 208.406,13.353 204.827,14.646 C 198.796,16.825 192.879,19.437 187.275,22.561 C 185.406,23.603 183.54,24.695 181.748,25.865 C 181.224,26.207 180.697,26.541 180.181,26.895 C 179.205,27.564 178.23,28.228 177.28,28.934 C 173.16,31.995 169.108,35.472 166.099,39.662 C 169.104,38.628 172.001,37.307 174.872,35.952 C 177.285,34.813 179.678,33.637 182.083,32.482 C 183.025,32.03 183.969,31.58 184.908,31.122 C 185.761,30.706 186.624,30.295 187.486,29.896 C 188.033,29.643 188.573,29.376 189.121,29.126 C 190.161,28.651 191.194,28.161 192.236,27.69 C 193.28,27.218 194.33,26.757 195.375,26.288 C 197.708,25.24 200.084,24.28 202.449,23.307 C 203.399,22.916 204.364,22.543 205.323,22.176 C 206.53,21.714 207.738,21.25 208.954,20.813 C 210.24,20.351 211.522,19.894 212.814,19.45 C 213.245,19.302 213.676,19.15 214.11,19.009 C 215.2,18.655 216.286,18.292 217.379,17.947 C 219.302,17.339 221.242,16.768 223.183,16.224 L 223.148,16.233 C 231.068,14.029 239.099,12.349 247.254,11.292 C 250.466,10.876 253.703,10.548 256.934,10.333 C 257.901,10.269 258.867,10.219 259.834,10.161 C 260.637,10.113 261.447,10.086 262.251,10.06 C 264.103,10.001 265.946,9.972 267.799,9.969 C 269.719,9.966 271.654,10.002 273.572,10.086 C 274.611,10.132 275.652,10.17 276.69,10.239 C 278.74,10.374 280.778,10.525 282.822,10.731 C 286.518,11.104 290.214,11.614 293.871,12.272 C 298.254,13.06 302.593,14.038 306.884,15.229 C 308.307,15.624 309.737,16.036 311.143,16.486 C 313.054,17.098 314.967,17.715 316.85,18.411 L 318.481,19.023 L 324.061,21.278 C 322.535,20.622 320.997,19.977 319.445,19.385 L 318.481,19.023 L 314.496,17.412 C 311.278,16.203 308.029,15.075 304.746,14.042 C 301.438,13.001 298.111,12.069 294.751,11.212 C 293.405,10.868 292.047,10.542 290.691,10.239 C 288.696,9.794 286.703,9.381 284.696,8.993 C 283.375,8.738 282.041,8.506 280.713,8.292 C 276.897,7.678 273.093,7.179 269.244,6.824 C 260.734,6.039 252.231,5.949 243.705,6.537 Z" stroke-width="0.5" stroke="none" fill="#1d9457" fill-rule="evenodd" marker-start="none" marker-end="none" fill-opacity="1.000000"/>
  <path d="M 60.283,5.065 C 59.133,5.115 57.981,5.199 56.833,5.283 C 55.946,5.348 55.05,5.419 54.166,5.512 C 51.991,5.74 49.833,5.98 47.669,6.302 C 39.206,7.561 30.79,9.637 22.851,12.854 C 20.549,13.787 18.262,14.831 16.074,16.006 C 13.267,17.513 10.598,19.18 8.189,21.278 C 10.96,21.018 13.731,20.485 16.456,19.923 C 19.366,19.323 22.258,18.652 25.16,18.014 C 27.028,17.603 28.893,17.182 30.762,16.779 C 32.363,16.434 33.967,16.107 35.571,15.775 C 37.81,15.312 40.073,14.888 42.326,14.496 C 43.241,14.337 44.157,14.189 45.072,14.033 C 46.016,13.872 46.965,13.731 47.912,13.587 C 50.379,13.212 52.853,12.888 55.332,12.6 C 58.401,12.243 61.476,11.987 64.558,11.774 C 65.665,11.698 66.771,11.649 67.879,11.589 C 69.432,11.505 70.993,11.463 72.548,11.431 C 75.346,11.373 78.149,11.384 80.946,11.466 C 83.518,11.541 86.083,11.674 88.65,11.864 C 89.586,11.933 90.519,12.019 91.454,12.098 C 94.249,12.335 97.043,12.698 99.82,13.091 C 104.693,13.78 109.557,14.734 114.328,15.883 C 115.574,16.187 116.824,16.493 118.063,16.827 C 120.351,17.444 122.622,18.099 124.883,18.81 C 132.583,21.231 140.083,24.302 147.274,27.966 C 149.167,28.931 151.045,29.941 152.889,30.997 C 154.384,31.854 155.857,32.735 157.314,33.644 L 161.475,36.345 L 166.003,39.554 C 164.562,38.499 163.12,37.451 161.639,36.452 L 161.475,36.345 L 158.258,34.066 C 152.55,30.219 146.637,26.667 140.532,23.486 C 120.618,13.11 98.541,6.519 76.088,5.154 C 72.33,4.926 68.549,4.832 64.785,4.908 C 63.281,4.938 61.786,5 60.283,5.065 Z" stroke-width="0.5" stroke="none" fill="#a4c035" fill-rule="evenodd" marker-start="none" marker-end="none" fill-opacity="1.000000"/>
  <path d="M 168.456,43.085 C 169.304,44.175 170.187,45.234 171.095,46.274 C 171.808,47.091 172.523,47.909 173.256,48.707 C 174.029,49.549 174.808,50.388 175.578,51.233 C 176.432,52.171 177.319,53.083 178.179,54.016 C 178.54,54.408 178.91,54.791 179.273,55.181 C 181.331,57.387 183.378,59.599 185.406,61.833 C 186.138,62.639 186.873,63.451 187.589,64.271 C 188.805,65.665 190.023,67.052 191.223,68.46 C 192.506,69.965 193.765,71.498 195.005,73.039 C 195.315,73.424 195.618,73.815 195.928,74.2 C 196.673,75.126 197.392,76.073 198.117,77.014 C 198.841,77.954 199.562,78.906 200.257,79.867 C 200.838,80.671 201.423,81.471 202.002,82.276 C 202.618,83.133 203.223,84.007 203.818,84.88 C 204.452,85.81 205.087,86.738 205.701,87.681 C 206.785,89.348 207.867,91.017 208.895,92.719 C 211.272,96.655 213.51,100.649 215.561,104.766 C 218.068,109.798 220.316,114.983 222.235,120.268 C 222.832,121.913 223.411,123.57 223.944,125.238 C 224.078,125.656 224.205,126.075 224.339,126.493 C 224.677,127.549 225.002,128.63 225.295,129.699 C 225.609,130.843 225.935,131.981 226.226,133.131 C 226.717,135.07 227.181,137.024 227.578,138.984 C 227.984,140.986 228.357,142.998 228.662,145.018 C 228.861,146.337 229.031,147.655 229.196,148.979 C 229.027,147.623 228.87,146.266 228.691,144.911 C 228.245,141.54 227.741,138.156 227.136,134.81 C 226.542,131.527 225.89,128.265 225.142,125.014 C 224.852,123.754 224.538,122.503 224.231,121.247 C 224.11,120.751 223.975,120.26 223.848,119.766 C 223.262,117.494 222.612,115.237 221.934,112.99 C 221.777,112.468 221.607,111.95 221.446,111.429 C 221.116,110.359 220.766,109.284 220.4,108.226 C 220.211,107.678 220.032,107.128 219.835,106.583 C 219.349,105.236 218.883,103.886 218.367,102.549 C 217.998,101.594 217.631,100.641 217.254,99.689 C 216.477,97.727 215.639,95.771 214.775,93.845 C 213.234,90.409 211.563,87.037 209.772,83.724 C 208.6,81.555 207.37,79.399 206.076,77.3 C 204.809,75.244 203.509,73.236 202.149,71.24 C 200.254,68.458 198.218,65.728 196.091,63.119 C 190.703,56.509 184.608,50.32 177.621,45.395 C 176.012,44.261 174.359,43.238 172.639,42.282 C 172.146,42.008 171.645,41.753 171.138,41.505 C 169.485,40.695 167.789,40.012 166.003,39.554 C 166.734,40.786 167.577,41.955 168.456,43.085 Z" stroke-width="0.5" stroke="none" fill="#1d9457" fill-rule="evenodd" marker-start="none" marker-end="none" fill-opacity="1.000000"/>
  <path d="M 228.575,152.865 C 228.338,154.709 228.165,156.56 228.008,158.413 C 227.784,161.065 227.606,163.719 227.404,166.373 C 227.361,166.941 227.321,167.509 227.279,168.077 C 227.244,168.55 227.199,169.022 227.167,169.495 C 227.135,169.968 227.09,170.44 227.055,170.913 C 226.976,171.983 226.888,173.057 226.787,174.125 C 226.68,175.26 226.583,176.397 226.473,177.532 C 226.362,178.669 226.236,179.803 226.116,180.939 C 225.783,184.082 225.349,187.215 224.892,190.342 C 224.739,191.389 224.571,192.44 224.392,193.483 C 224.217,194.501 224.049,195.52 223.864,196.536 C 223.632,197.811 223.385,199.088 223.128,200.359 C 222.477,203.583 221.729,206.779 220.926,209.968 L 220.938,209.926 C 220.485,211.62 220.042,213.312 219.553,214.996 C 218.808,217.559 218.017,220.106 217.165,222.635 C 215.173,228.547 212.822,234.367 210.165,240.011 C 206.181,248.474 201.427,256.627 195.967,264.223 C 193.946,267.035 191.834,269.749 189.632,272.421 C 189.227,272.913 188.811,273.393 188.402,273.881 C 187.861,274.528 187.3,275.176 186.735,275.802 C 186.113,276.49 185.504,277.19 184.874,277.871 C 183.814,279.016 182.742,280.156 181.647,281.267 C 179.047,283.906 176.353,286.433 173.556,288.862 C 171.163,290.941 168.68,292.898 166.15,294.806 C 169.996,291.916 173.775,288.956 177.417,285.81 C 180.153,283.447 182.823,281.029 185.425,278.519 C 189.274,274.806 192.958,270.899 196.445,266.845 C 208.591,252.721 218.309,236.595 224.808,219.124 C 226.551,214.437 228.045,209.686 229.295,204.844 C 230.141,201.566 230.881,198.242 231.472,194.909 C 232.694,188.01 233.413,181.036 233.411,174.025 C 233.41,171.459 233.301,168.903 233.103,166.345 C 232.878,163.432 232.474,160.472 231.878,157.612 C 231.259,154.64 230.439,151.756 229.196,148.979 C 228.933,150.267 228.743,151.562 228.575,152.865 Z" stroke-width="0.5" stroke="none" fill="#a4c035" fill-rule="evenodd" marker-start="none" marker-end="none" fill-opacity="1.000000"/>
  <path d="M 322.161,26.029 C 321.796,27.052 321.44,28.077 321.102,29.109 C 320.102,32.163 319.135,35.23 318.185,38.3 C 315.736,46.213 313.081,54.113 309.954,61.785 C 308.71,64.836 307.403,67.87 306.012,70.857 C 302.909,77.521 299.414,84.006 295.509,90.235 C 294.248,92.246 292.95,94.246 291.595,96.195 C 290.421,97.884 289.239,99.561 288.008,101.21 C 286.663,103.012 285.282,104.781 283.87,106.53 C 282.884,107.752 281.866,108.942 280.849,110.139 C 279.905,111.251 278.925,112.353 277.94,113.428 C 277.182,114.256 276.416,115.074 275.663,115.882 C 274.765,116.806 273.878,117.744 272.962,118.653 C 271.275,120.329 269.57,121.98 267.814,123.584 C 265.202,125.97 262.51,128.246 259.744,130.451 C 258.337,131.573 256.897,132.648 255.452,133.72 C 254.207,134.644 252.93,135.533 251.651,136.409 C 246.758,139.759 241.669,142.781 236.385,145.471 C 234.552,146.404 232.697,147.28 230.824,148.132 C 230.264,148.387 229.696,148.624 229.134,148.875 C 229.669,148.637 230.208,148.406 230.744,148.171 C 231.604,147.794 232.457,147.403 233.312,147.016 C 234.167,146.629 235.026,146.236 235.872,145.829 C 237.362,145.113 238.848,144.396 240.325,143.653 C 242.737,142.44 245.116,141.162 247.473,139.847 C 250.612,138.096 253.697,136.238 256.72,134.294 C 257.738,133.64 258.745,132.974 259.75,132.3 C 260.63,131.71 261.517,131.114 262.378,130.496 C 262.824,130.176 263.277,129.868 263.722,129.547 C 265.335,128.38 266.943,127.212 268.516,125.99 C 268.905,125.688 269.299,125.393 269.684,125.085 C 270.552,124.39 271.432,123.71 272.291,123.003 C 274.191,121.438 276.058,119.849 277.899,118.216 C 278.807,117.386 279.737,116.56 280.637,115.714 C 281.422,114.976 282.202,114.231 282.977,113.483 C 285.945,110.618 288.791,107.601 291.52,104.508 C 300.289,94.57 307.753,83.461 313.522,71.526 C 314.272,69.973 314.989,68.404 315.676,66.822 C 316.086,65.876 316.497,64.924 316.877,63.966 C 317.511,62.368 318.149,60.776 318.719,59.153 C 319.457,57.052 320.183,54.947 320.802,52.807 C 321.561,50.183 322.277,47.549 322.836,44.874 C 323.285,42.728 323.673,40.597 323.989,38.427 C 324.214,36.884 324.371,35.339 324.506,33.786 C 324.604,32.658 324.656,31.526 324.692,30.394 C 324.788,27.367 324.645,24.254 324.061,21.278 C 323.346,22.82 322.732,24.428 322.161,26.029 Z" stroke-width="0.5" stroke="none" fill="#0a6eab" fill-rule="evenodd" marker-start="none" marker-end="none" fill-opacity="1.000000"/>
  <path d="M 106.54,150.296 C 109.685,151.601 112.856,152.847 116.055,154.015 C 119.188,155.159 122.346,156.209 125.53,157.201 C 126.763,157.585 128.005,157.939 129.245,158.301 C 131.039,158.825 132.855,159.292 134.666,159.752 C 135.326,159.92 135.986,160.078 136.649,160.236 C 137.146,160.354 137.64,160.48 138.139,160.586 C 138.604,160.685 139.068,160.799 139.533,160.903 C 140.064,161.021 140.599,161.131 141.131,161.245 C 142.194,161.474 143.267,161.685 144.336,161.885 C 145.676,162.135 147.017,162.384 148.364,162.598 C 149.375,162.759 150.384,162.92 151.397,163.068 C 153.489,163.373 155.597,163.633 157.7,163.852 C 160.153,164.107 162.603,164.288 165.065,164.433 C 166.294,164.506 167.53,164.559 168.76,164.59 C 170.713,164.638 172.673,164.683 174.626,164.647 C 175.141,164.638 175.657,164.636 176.172,164.624 C 177.409,164.596 178.644,164.544 179.88,164.489 C 181.806,164.403 183.728,164.254 185.648,164.082 C 188.323,163.843 191.003,163.508 193.655,163.085 C 202.082,161.74 210.48,159.566 218.252,155.993 C 219.195,155.559 220.152,155.092 221.064,154.596 C 221.649,154.278 222.237,153.968 222.808,153.623 C 223.29,153.332 223.775,153.05 224.248,152.744 C 226.02,151.598 227.644,150.376 229.134,148.875 C 227.703,148.884 226.266,149.031 224.849,149.225 C 223.476,149.413 222.128,149.648 220.767,149.907 C 219.433,150.161 218.112,150.444 216.785,150.731 C 215.736,150.958 214.683,151.186 213.638,151.432 C 212.6,151.677 211.556,151.921 210.515,152.152 C 210.027,152.26 209.542,152.38 209.055,152.492 C 207.729,152.797 206.401,153.103 205.074,153.402 C 203.297,153.803 201.516,154.181 199.737,154.569 C 198.803,154.772 197.861,154.968 196.923,155.152 C 194.428,155.641 191.935,156.133 189.427,156.555 C 188.158,156.768 186.887,156.98 185.615,157.173 C 185.126,157.247 184.635,157.313 184.146,157.39 C 183.624,157.472 183.1,157.537 182.577,157.612 C 182.054,157.687 181.531,157.76 181.007,157.823 C 179.695,157.98 178.387,158.16 177.072,158.294 C 176.086,158.394 175.101,158.5 174.114,158.598 C 173.062,158.703 172.004,158.783 170.95,158.864 C 169.829,158.95 168.703,159.031 167.581,159.09 C 164.899,159.231 162.214,159.346 159.527,159.361 C 157.697,159.371 155.872,159.363 154.042,159.325 C 152.745,159.298 151.444,159.244 150.148,159.185 C 148.45,159.108 146.746,158.996 145.052,158.855 C 141.318,158.544 137.577,158.13 133.877,157.533 C 131.219,157.104 128.567,156.628 125.936,156.051 C 123.389,155.493 120.869,154.871 118.355,154.179 C 117.21,153.864 116.075,153.518 114.938,153.174 C 113.351,152.694 111.756,152.166 110.195,151.608 C 109.135,151.229 108.086,150.834 107.033,150.438 C 105.598,149.899 104.181,149.291 102.77,148.693 C 104.027,149.225 105.279,149.773 106.54,150.296 Z" stroke-width="0.5" stroke="none" fill="#a4c035" fill-rule="evenodd" marker-start="none" marker-end="none" fill-opacity="1.000000"/>
  <path d="M 8.786,25.991 C 9.423,30.555 10.197,35.094 11.148,39.604 C 11.751,42.463 12.417,45.32 13.166,48.144 C 13.747,50.338 14.348,52.532 15.019,54.7 C 15.727,56.987 16.462,59.25 17.248,61.512 C 18.956,66.423 20.932,71.249 23.101,75.973 C 24.195,78.356 25.354,80.735 26.58,83.053 C 27.353,84.515 28.128,85.979 28.948,87.415 C 29.497,88.377 30.038,89.345 30.609,90.294 C 31.125,91.153 31.635,92.015 32.164,92.866 C 33.33,94.744 34.528,96.6 35.768,98.43 C 43.141,109.309 51.971,119.272 62.002,127.768 C 69.253,133.909 77.258,139.327 85.845,143.42 C 86.876,143.912 87.921,144.365 88.97,144.816 C 90.6,145.517 92.3,146.162 93.987,146.711 C 96.874,147.651 99.742,148.384 102.77,148.693 C 101.794,147.825 100.766,147.013 99.728,146.221 C 98.256,145.098 96.747,144.024 95.227,142.967 C 93.361,141.67 91.484,140.389 89.604,139.112 C 88.667,138.475 87.723,137.844 86.794,137.196 C 85.296,136.151 83.776,135.137 82.288,134.077 C 80.848,133.052 79.397,132.042 77.971,130.998 C 75.997,129.552 74.042,128.09 72.102,126.6 C 70.788,125.59 69.476,124.557 68.194,123.506 C 67.499,122.936 66.803,122.37 66.109,121.799 C 65.065,120.94 64.035,120.055 63.01,119.172 C 60.016,116.591 57.111,113.903 54.282,111.143 L 54.309,111.171 C 53.519,110.382 52.72,109.603 51.939,108.805 C 50.011,106.835 48.113,104.832 46.277,102.776 C 41.744,97.698 37.519,92.389 33.634,86.798 C 31.642,83.931 29.733,80.996 27.94,78 C 27.225,76.805 26.53,75.6 25.841,74.389 C 24.88,72.7 23.951,70.974 23.068,69.242 C 22.089,67.322 21.116,65.386 20.228,63.422 C 19.877,62.646 19.523,61.874 19.178,61.095 C 18.404,59.348 17.67,57.578 16.968,55.801 C 16.617,54.913 16.267,54.021 15.94,53.124 C 15.649,52.327 15.356,51.531 15.072,50.731 C 14.091,47.969 13.192,45.147 12.4,42.325 C 12,40.901 11.598,39.468 11.252,38.03 C 11.035,37.13 10.81,36.233 10.606,35.33 C 10.296,33.962 10.014,32.592 9.736,31.217 C 9.072,27.931 8.591,24.605 8.189,21.278 C 8.377,22.85 8.567,24.423 8.786,25.991 Z" stroke-width="0.5" stroke="none" fill="#0a6eab" fill-rule="evenodd" marker-start="none" marker-end="none" fill-opacity="1.000000"/>
  <path d="M 36.16,43.774 C 36.177,46.031 36.359,48.268 36.669,50.503 C 37.14,53.896 37.893,57.265 38.851,60.553 C 40.253,65.365 42.084,70.057 44.258,74.572 C 54.017,94.846 70.253,111.432 89.091,123.484 C 92.781,125.845 96.588,128.037 100.469,130.067 C 102.258,131.003 104.074,131.918 105.9,132.779 C 106.551,133.086 107.205,133.389 107.856,133.697 C 110.147,134.779 112.496,135.768 114.831,136.753 C 112.891,135.932 110.962,135.086 109.076,134.147 C 107.528,133.377 105.998,132.59 104.484,131.755 C 98.817,128.629 93.367,124.957 88.325,120.901 C 85.812,118.879 83.383,116.774 81.032,114.565 C 80.317,113.893 79.608,113.211 78.909,112.522 C 78.222,111.845 77.554,111.151 76.885,110.479 C 75.624,109.17 74.398,107.842 73.18,106.489 C 72.308,105.521 71.467,104.522 70.625,103.528 C 69.732,102.474 68.874,101.387 68.017,100.303 C 67.254,99.339 66.499,98.351 65.776,97.357 C 65.296,96.697 64.808,96.042 64.338,95.374 C 63.34,93.957 62.358,92.529 61.411,91.077 C 56.373,83.351 52.197,75.181 48.657,66.67 C 46.302,61.009 44.264,55.224 42.261,49.432 C 41.881,48.333 41.496,47.235 41.105,46.14 C 40.695,44.994 40.287,43.844 39.847,42.709 C 38.999,40.524 38.129,38.367 36.995,36.31 C 36.354,38.732 36.141,41.274 36.16,43.774 Z" stroke-width="0.5" stroke="none" fill="#a4c035" fill-rule="evenodd" marker-start="none" marker-end="none" fill-opacity="1.000000"/>
  <path d="M 215.13,137.902 C 212.859,138.732 210.572,139.489 208.246,140.151 C 203.406,141.528 198.498,142.56 193.517,143.272 C 191.622,143.543 189.702,143.788 187.795,143.956 C 185.614,144.148 183.434,144.32 181.246,144.411 C 180.156,144.456 179.065,144.496 177.975,144.517 C 177.048,144.535 176.123,144.535 175.196,144.543 C 174.331,144.551 173.451,144.54 172.586,144.518 C 171.5,144.49 170.413,144.473 169.328,144.421 C 166.675,144.293 164.028,144.148 161.384,143.887 C 158.587,143.611 155.804,143.304 153.022,142.902 C 152.063,142.764 151.1,142.632 150.144,142.475 C 149.188,142.318 148.229,142.174 147.275,142.007 C 145.258,141.653 143.25,141.285 141.239,140.903 C 137.207,140.137 133.197,139.24 129.172,138.437 C 126.748,137.953 124.32,137.48 121.871,137.137 C 120.169,136.899 118.462,136.711 116.742,136.693 C 116.103,136.686 115.468,136.698 114.831,136.753 C 116.258,138.383 117.934,139.656 119.76,140.806 C 121.4,141.839 123.167,142.732 124.939,143.516 C 127.306,144.564 129.766,145.425 132.245,146.163 C 136.577,147.452 141.018,148.32 145.495,148.916 C 150.22,149.545 154.958,149.785 159.721,149.802 C 161.301,149.808 162.879,149.75 164.458,149.698 C 165.442,149.665 166.431,149.605 167.413,149.54 C 169.967,149.372 172.513,149.128 175.053,148.812 C 182.796,147.849 190.515,146.175 197.996,143.966 C 201.463,142.942 204.895,141.801 208.294,140.57 C 209.65,140.079 211.012,139.577 212.354,139.049 C 213.388,138.642 214.427,138.243 215.456,137.822 C 215.92,137.632 216.386,137.448 216.849,137.258 C 217.364,137.046 217.876,136.828 218.393,136.622 C 217.309,137.059 216.228,137.501 215.13,137.902 Z" stroke-width="0.5" stroke="none" fill="#0a6eab" fill-rule="evenodd" marker-start="none" marker-end="none" fill-opacity="1.000000"/>
  <path d="M 295.313,40.629 C 294.649,44.538 293.75,48.386 292.633,52.191 C 291.533,55.936 290.211,59.645 288.697,63.243 C 287.596,65.858 286.413,68.44 285.116,70.964 C 283.959,73.216 282.745,75.449 281.439,77.619 C 280.385,79.37 279.3,81.083 278.175,82.789 C 276.553,85.25 274.791,87.63 272.997,89.968 C 272.346,90.816 271.673,91.672 270.986,92.491 C 270.431,93.153 269.891,93.828 269.325,94.481 C 268.544,95.382 267.774,96.294 266.97,97.175 C 266.442,97.754 265.913,98.332 265.382,98.909 C 262.955,101.543 260.372,104.08 257.747,106.516 L 257.774,106.489 C 255.464,108.619 253.109,110.687 250.687,112.689 C 249.175,113.939 247.633,115.145 246.088,116.354 C 245.28,116.986 244.454,117.597 243.636,118.215 C 243.026,118.676 242.406,119.142 241.783,119.583 C 241.491,119.79 241.206,120.008 240.917,120.219 C 240.485,120.535 240.046,120.845 239.611,121.157 C 238.33,122.075 237.036,122.99 235.735,123.879 C 234.978,124.396 234.225,124.921 233.468,125.439 C 232.711,125.957 231.949,126.468 231.195,126.99 C 229.47,128.183 227.722,129.344 226.012,130.558 C 224.221,131.83 222.455,133.104 220.756,134.5 C 219.94,135.171 219.138,135.873 218.393,136.622 C 222.268,136.537 226.073,135.499 229.686,134.152 C 230.464,133.862 231.221,133.548 231.989,133.234 C 232.721,132.935 233.469,132.601 234.181,132.258 C 234.566,132.073 234.954,131.893 235.338,131.706 C 236.541,131.119 237.724,130.492 238.894,129.842 C 244.057,126.973 248.93,123.5 253.444,119.696 C 255.494,117.968 257.492,116.154 259.4,114.27 C 260.144,113.535 260.888,112.801 261.609,112.043 C 261.797,111.845 261.986,111.648 262.176,111.452 L 262.29,111.334 C 262.33,111.291 262.376,111.248 262.414,111.205 C 262.435,111.181 262.46,111.182 262.478,111.139 C 262.485,111.121 262.684,110.917 262.713,110.886 C 262.916,110.667 263.123,110.45 263.326,110.231 C 263.91,109.601 264.485,108.962 265.055,108.32 C 266.569,106.617 268.017,104.857 269.434,103.073 C 270.197,102.112 270.939,101.125 271.666,100.137 C 272.389,99.154 273.106,98.164 273.795,97.157 C 274.618,95.954 275.436,94.747 276.216,93.516 C 278.277,90.263 280.206,86.94 281.962,83.512 C 283.346,80.809 284.653,78.048 285.836,75.25 C 286.48,73.727 287.105,72.189 287.69,70.642 C 288.145,69.441 288.574,68.235 289.004,67.025 C 289.36,66.024 289.689,65.008 290.013,63.996 C 290.915,61.175 291.724,58.335 292.445,55.462 C 292.951,53.448 293.414,51.422 293.826,49.387 C 294.136,47.854 294.447,46.312 294.7,44.769 C 294.889,43.617 295.084,42.469 295.26,41.315 C 295.514,39.65 295.722,37.98 295.94,36.31 C 295.749,37.756 295.557,39.191 295.313,40.629 Z" stroke-width="0.5" stroke="none" fill="#a4c035" fill-rule="evenodd" marker-start="none" marker-end="none" fill-opacity="1.000000"/>
  <path d="M 243.004,26.614 C 240.769,26.806 238.531,27.073 236.312,27.405 C 227.977,28.651 219.842,30.748 211.926,33.623 C 207.005,35.435 202.199,37.476 197.511,39.83 C 196.327,40.425 195.14,41.024 193.975,41.656 C 193.202,42.076 192.427,42.492 191.659,42.921 C 190.002,43.847 188.367,44.807 186.742,45.787 C 184.714,47.01 182.736,48.309 180.764,49.619 C 179.683,50.337 178.617,51.079 177.557,51.827 C 175.406,53.346 173.285,54.907 171.2,56.515 C 174.658,53.859 178.284,51.423 182.05,49.226 C 183.59,48.328 185.148,47.474 186.725,46.642 C 187.984,45.978 189.267,45.359 190.55,44.742 C 192.505,43.802 194.518,42.92 196.53,42.109 C 199.304,40.991 202.12,39.938 204.972,39.036 C 206.234,38.637 207.494,38.248 208.766,37.879 C 210.138,37.481 211.523,37.117 212.894,36.772 C 222.643,34.322 232.739,33.044 242.791,32.895 C 250.219,32.785 257.606,33.272 264.97,34.228 C 269.431,34.807 273.865,35.563 278.286,36.39 C 279.885,36.689 281.486,36.987 283.082,37.303 C 284.222,37.529 285.368,37.739 286.511,37.949 C 287.704,38.168 288.904,38.392 290.103,38.576 C 290.755,38.676 291.405,38.779 292.058,38.873 C 293.715,39.111 295.392,39.272 297.066,39.314 C 294.512,36.781 291.275,34.83 288.041,33.289 C 283.215,30.989 278.124,29.414 272.911,28.269 C 271.311,27.918 269.699,27.63 268.082,27.37 C 264.659,26.819 261.172,26.474 257.709,26.308 C 256.512,26.251 255.317,26.218 254.119,26.196 C 250.414,26.128 246.695,26.297 243.004,26.614 Z" stroke-width="0.5" stroke="none" fill="#0a6eab" fill-rule="evenodd" marker-start="none" marker-end="none" fill-opacity="1.000000"/>
  <path d="M 165.217,58.754 C 163.49,59.669 161.854,60.735 160.276,61.886 C 157.292,64.062 154.531,66.575 151.966,69.228 C 149.598,71.677 147.385,74.276 145.318,76.982 C 142.425,80.769 139.814,84.726 137.436,88.856 C 136.523,90.442 135.64,92.057 134.807,93.686 C 134.384,94.513 133.974,95.344 133.558,96.174 C 133.106,97.077 132.685,98.006 132.261,98.923 C 131.483,100.606 130.761,102.311 130.052,104.024 C 129.175,106.142 128.376,108.305 127.611,110.466 C 126.352,114.021 125.277,117.63 124.29,121.269 C 123.679,123.522 123.134,125.803 122.628,128.081 C 122.411,129.058 122.214,130.039 122.008,131.019 C 121.837,131.833 121.679,132.656 121.528,133.474 C 121.155,135.496 120.791,137.518 120.479,139.551 C 120.136,141.78 119.828,144.006 119.526,146.241 C 119.898,143.481 120.369,140.754 120.981,138.036 C 121.772,134.526 122.748,131.067 123.891,127.656 C 124.345,126.3 124.819,124.943 125.331,123.608 C 126.051,121.729 126.806,119.884 127.6,118.035 C 128.3,116.405 129.055,114.779 129.835,113.186 C 130.677,111.467 131.554,109.776 132.462,108.091 C 134.265,104.746 136.23,101.473 138.306,98.29 C 139.163,96.976 140.035,95.666 140.935,94.381 C 142.794,91.727 144.705,89.118 146.708,86.57 C 147.324,85.787 147.937,85 148.568,84.229 C 150.239,82.188 151.909,80.149 153.643,78.161 C 154.28,77.43 154.913,76.695 155.552,75.966 C 157.867,73.326 160.219,70.715 162.554,68.093 C 163.098,67.482 163.632,66.861 164.168,66.242 C 165.252,64.992 166.319,63.723 167.339,62.42 C 168.774,60.587 170.192,58.62 171.2,56.515 C 169.085,56.923 167.113,57.75 165.217,58.754 Z" stroke-width="0.5" stroke="none" fill="#1d9457" fill-rule="evenodd" marker-start="none" marker-end="none" fill-opacity="1.000000"/>
  <path d="M 116.909,153.028 C 116.33,155.227 115.945,157.446 115.652,159.699 C 115.321,162.238 115.176,164.815 115.129,167.374 C 115.046,171.894 115.372,176.457 115.979,180.935 C 116.166,182.313 116.391,183.682 116.63,185.051 C 117.305,188.918 118.247,192.735 119.344,196.502 C 119.854,198.252 120.403,199.994 121,201.718 C 121.814,204.07 122.694,206.374 123.64,208.676 C 124.669,211.179 125.817,213.659 127.022,216.082 C 127.371,216.784 127.735,217.477 128.093,218.174 C 129.487,220.883 131.034,223.548 132.642,226.135 C 136.154,231.784 140.134,237.172 144.49,242.2 C 147.549,245.731 150.794,249.105 154.196,252.307 C 155.982,253.988 157.811,255.601 159.669,257.202 L 163.984,260.646 L 164.529,261.125 C 165.54,261.959 166.577,262.755 167.62,263.548 L 163.984,260.646 L 159.421,256.635 C 157.593,254.925 155.853,253.127 154.155,251.288 C 152.489,249.484 150.872,247.588 149.349,245.661 C 148.203,244.212 147.084,242.747 146.009,241.245 C 144.541,239.194 143.129,237.09 141.802,234.944 C 140.955,233.574 140.148,232.192 139.347,230.796 C 139.011,230.21 138.681,229.612 138.362,229.016 C 137.941,228.23 137.514,227.447 137.113,226.65 C 136.374,225.184 135.637,223.72 134.951,222.228 C 132.567,217.04 130.523,211.744 128.831,206.29 C 128.128,204.023 127.488,201.748 126.891,199.451 C 126.539,198.095 126.224,196.733 125.904,195.369 L 125.911,195.394 C 124.681,190.083 123.756,184.692 123.065,179.286 C 122.822,177.385 122.593,175.474 122.412,173.566 C 122.224,171.586 122.023,169.607 121.873,167.624 C 121.719,165.592 121.553,163.561 121.408,161.528 C 121.273,159.643 121.141,157.745 120.959,155.865 C 120.648,152.65 120.352,149.372 119.526,146.241 C 118.334,148.388 117.532,150.66 116.909,153.028 Z" stroke-width="0.5" stroke="none" fill="#0a6eab" fill-rule="evenodd" marker-start="none" marker-end="none" fill-opacity="1.000000"/>
  <path d="M 212.805,148.823 C 213.11,152.684 213.174,156.611 213.046,160.482 C 212.951,163.37 212.739,166.279 212.421,169.151 C 212.325,170.019 212.212,170.884 212.103,171.75 C 211.945,172.999 211.753,174.257 211.543,175.499 C 211.397,176.364 211.252,177.228 211.088,178.09 C 210.748,179.87 210.375,181.634 209.97,183.4 C 209.519,185.368 208.992,187.32 208.453,189.265 L 208.458,189.244 C 207.896,191.163 207.325,193.088 206.673,194.978 C 206.4,195.769 206.136,196.567 205.847,197.352 C 205.559,198.134 205.269,198.915 204.98,199.696 C 204.551,200.855 204.078,202.011 203.604,203.153 C 202.657,205.435 201.652,207.702 200.577,209.927 C 196.179,219.026 190.775,227.583 184.617,235.59 C 183.047,237.632 181.442,239.639 179.806,241.628 C 179.316,242.223 178.814,242.809 178.322,243.402 C 177.383,244.535 176.422,245.669 175.452,246.776 C 174.591,247.76 173.752,248.765 172.888,249.746 C 172.119,250.619 171.37,251.514 170.615,252.398 C 169.825,253.323 169.033,254.251 168.272,255.199 C 166.814,257.015 165.348,258.866 164.158,260.873 C 166.103,260.345 167.967,259.541 169.739,258.586 C 172.177,257.273 174.422,255.748 176.61,254.056 C 178.971,252.23 181.229,250.189 183.324,248.063 C 187.265,244.063 190.737,239.747 193.892,235.105 C 197.428,229.902 200.494,224.29 203.043,218.54 C 203.973,216.441 204.843,214.312 205.652,212.163 C 205.943,211.39 206.207,210.607 206.493,209.833 C 206.64,209.434 206.769,209.03 206.908,208.628 C 207.016,208.315 207.124,208.002 207.224,207.687 C 207.511,206.784 207.82,205.884 208.084,204.974 C 208.243,204.426 208.413,203.881 208.572,203.333 C 208.77,202.648 208.97,201.958 209.152,201.269 C 209.237,200.945 209.319,200.62 209.408,200.297 C 209.609,199.563 209.8,198.809 209.971,198.068 C 210.16,197.249 210.369,196.434 210.545,195.612 C 210.844,194.219 211.144,192.824 211.404,191.423 C 212.132,187.503 212.709,183.538 213.089,179.566 C 213.324,177.106 213.5,174.646 213.617,172.178 C 213.894,166.362 213.783,160.508 213.391,154.7 C 213.304,153.405 213.187,152.112 213.076,150.819 C 212.859,148.297 212.547,145.775 212.225,143.264 C 212.46,145.118 212.658,146.959 212.805,148.823 Z" stroke-width="0.5" stroke="none" fill="#1d9457" fill-rule="evenodd" marker-start="none" marker-end="none" fill-opacity="1.000000"/>
  <path d="M 163.053,55.805 C 164.525,57.032 165.953,58.3 167.352,59.609 C 170.58,62.629 173.59,65.875 176.421,69.268 C 184.46,78.904 190.877,89.825 195.975,101.27 C 196.832,103.194 197.653,105.13 198.44,107.083 C 198.802,107.982 199.167,108.884 199.51,109.79 C 200.025,111.151 200.545,112.507 201.043,113.874 C 201.578,115.342 202.091,116.817 202.606,118.292 C 203.96,122.168 205.199,126.088 206.507,129.98 C 207.296,132.328 208.112,134.665 209.034,136.964 C 209.902,139.128 210.901,141.339 212.225,143.264 C 213.201,140.384 213.39,137.213 213.257,134.192 C 213.212,133.164 213.141,132.134 213.025,131.111 C 212.71,128.328 212.2,125.59 211.522,122.873 C 211.287,121.933 211.029,121.003 210.764,120.071 C 210.075,117.651 209.245,115.232 208.334,112.887 C 208.036,112.119 207.726,111.358 207.413,110.597 C 206.767,109.026 206.064,107.472 205.335,105.937 C 203.736,102.572 201.955,99.268 200.022,96.083 C 197.13,91.317 193.942,86.75 190.461,82.395 C 188.781,80.294 187.038,78.255 185.25,76.245 C 184.137,74.994 182.985,73.777 181.831,72.563 C 180.222,70.87 178.543,69.227 176.857,67.611 C 175.455,66.267 174.01,64.949 172.556,63.661 C 170.228,61.6 167.857,59.581 165.43,57.636 C 164.215,56.663 162.996,55.698 161.768,54.741 C 161.286,54.366 160.798,53.998 160.317,53.622 C 161.238,54.34 162.155,55.057 163.053,55.805 Z" stroke-width="0.5" stroke="none" fill="#a4c035" fill-rule="evenodd" marker-start="none" marker-end="none" fill-opacity="1.000000"/>
  <path d="M 83.324,25.091 C 79.985,25.234 76.636,25.508 73.321,25.927 C 71.999,26.094 70.673,26.266 69.358,26.479 C 68.216,26.664 67.079,26.851 65.94,27.056 C 63.439,27.506 60.928,28.042 58.46,28.647 C 56.316,29.173 54.16,29.73 52.047,30.367 C 50.54,30.821 49.04,31.28 47.543,31.769 C 46.114,32.236 44.696,32.739 43.281,33.247 C 40.388,34.286 37.514,35.43 34.688,36.64 C 38.138,35.169 41.662,33.919 45.258,32.855 C 47.259,32.263 49.278,31.748 51.31,31.274 C 53.265,30.818 55.236,30.448 57.211,30.096 C 57.623,30.023 58.039,29.964 58.452,29.895 C 60.867,29.491 63.317,29.218 65.754,28.986 C 67.368,28.833 68.984,28.736 70.603,28.651 C 71.758,28.591 72.927,28.549 74.083,28.537 C 75.246,28.525 76.407,28.509 77.57,28.525 C 79.614,28.554 81.64,28.641 83.68,28.758 C 84.718,28.817 85.769,28.896 86.804,28.996 C 88.082,29.119 89.361,29.237 90.635,29.398 C 94.058,29.829 97.479,30.346 100.857,31.052 C 102.009,31.293 103.161,31.532 104.307,31.799 C 105.503,32.077 106.693,32.369 107.884,32.671 C 110.142,33.243 112.373,33.903 114.602,34.576 L 114.568,34.567 C 116.074,35.042 117.571,35.524 119.066,36.031 C 120.395,36.481 121.712,36.965 123.03,37.447 C 124.92,38.138 126.785,38.892 128.65,39.646 C 130.575,40.424 132.472,41.261 134.372,42.095 C 135.307,42.506 136.231,42.94 137.162,43.358 C 138.321,43.878 139.477,44.424 140.623,44.973 C 142.46,45.853 144.299,46.729 146.134,47.613 C 147.839,48.434 149.543,49.263 151.263,50.054 C 154.191,51.401 157.204,52.766 160.317,53.622 C 157.899,49.621 154.28,46.358 150.595,43.541 C 149.453,42.668 148.263,41.836 147.062,41.048 C 145.765,40.197 144.447,39.371 143.099,38.604 C 141.812,37.871 140.523,37.16 139.202,36.489 C 135.624,34.67 131.936,33.087 128.162,31.721 C 113.859,26.544 98.5,24.443 83.324,25.091 Z" stroke-width="0.5" stroke="none" fill="#1d9457" fill-rule="evenodd" marker-start="none" marker-end="none" fill-opacity="1.000000"/>
 </g>
</svg>
