<?xml version="1.0" standalone="no"?>
<!DOCTYPE svg PUBLIC "-//W3C//DTD SVG 1.1//EN" "http://www.w3.org/Graphics/SVG/1.1/DTD/svg11.dtd">
<!--Generator: Xara Designer (www.xara.com), SVG filter version: 6.6.0.0-->
<svg fill="none" fill-rule="evenodd" stroke="black" stroke-width="0.501" stroke-linejoin="bevel" stroke-miterlimit="10" font-family="Times New Roman" font-size="16" style="font-variant-ligatures:none" xmlns:xlink="http://www.w3.org/1999/xlink" xmlns="http://www.w3.org/2000/svg" version="1.1" overflow="visible" width="332.25pt" height="303pt" viewBox="0 -303 332.25 303">
 <defs>
	</defs>
 <g id="Layer 1" transform="scale(1 -1)">
  <g id="Group" fill-rule="evenodd" stroke="none" stroke-width="0.5" fill-opacity="1.000000">
   <path d="M 102.432,152.262 L 102.405,152.695 L 101.904,157.751 C 101.73,160.128 101.559,162.513 101.47,164.895 C 101.43,165.974 101.384,167.052 101.356,168.131 C 101.331,169.093 101.317,170.056 101.302,171.018 C 101.244,174.84 101.341,178.668 101.522,182.486 C 101.574,183.588 101.654,184.689 101.722,185.79 C 101.913,188.872 102.247,191.956 102.61,195.022 C 102.812,196.725 103.049,198.438 103.318,200.132 C 103.501,201.281 103.676,202.432 103.886,203.577 C 104.185,205.205 104.48,206.824 104.81,208.445 C 105.351,211.1 105.961,213.765 106.648,216.385 C 107.195,218.473 107.761,220.558 108.392,222.622 C 109.805,227.243 111.393,231.772 113.222,236.246 C 115.395,241.563 117.886,246.74 120.675,251.762 C 121.947,254.053 123.296,256.341 124.714,258.544 C 125.188,259.28 125.661,260.014 126.143,260.745 C 127.024,262.081 127.945,263.392 128.876,264.694 C 130.492,266.953 132.202,269.174 133.981,271.308 C 135.018,272.552 136.067,273.785 137.157,274.983 C 141.525,279.787 146.226,284.218 151.491,288.033 C 153.348,289.379 155.281,290.638 157.279,291.764 C 160.087,293.346 163.016,294.679 166.153,295.458 C 164.731,293.007 162.976,290.692 161.196,288.491 C 159.837,286.811 158.447,285.157 157.029,283.526 C 156.327,282.719 155.631,281.905 154.922,281.104 C 153.475,279.469 152.055,277.809 150.609,276.174 C 149.313,274.708 148.031,273.215 146.767,271.721 C 145.923,270.723 145.082,269.723 144.24,268.724 C 143.609,267.975 142.991,267.211 142.37,266.453 C 141.195,265.018 140.039,263.567 138.897,262.106 C 132.255,253.611 126.197,244.608 121.072,235.115 C 120.025,233.175 119.001,231.219 118.034,229.237 C 117.548,228.24 117.056,227.242 116.593,226.234 C 115.923,224.776 115.25,223.323 114.619,221.847 C 113.777,219.878 112.97,217.909 112.192,215.914 C 111.302,213.634 110.475,211.311 109.701,208.989 C 109.336,207.894 108.992,206.795 108.646,205.712 C 108.297,204.559 107.947,203.405 107.612,202.244 C 107.467,201.742 107.332,201.237 107.189,200.734 C 106.938,199.852 106.707,198.954 106.483,198.064 C 105.966,196.014 105.494,193.97 105.047,191.903 C 104.701,190.302 104.389,188.68 104.11,187.066 C 103.827,185.427 103.547,183.781 103.324,182.132 C 103.106,180.516 102.903,178.904 102.727,177.283 C 102.545,175.609 102.412,173.932 102.286,172.254 C 102.14,170.32 102.061,168.362 102.009,166.423 C 101.997,165.976 101.994,165.528 101.984,165.08 C 101.956,163.889 101.971,162.696 101.979,161.505 C 101.986,160.436 102.017,159.363 102.059,158.295 L 102.405,152.695 L 102.815,148.562 C 102.676,149.795 102.54,151.025 102.432,152.262 Z" fill="#1d9457" marker-start="none" marker-end="none" fill-opacity="1.000000"/>
   <path d="M 157.829,45.519 C 151.983,50.216 146.339,55.133 141.024,60.428 C 138.121,63.32 135.299,66.301 132.609,69.393 C 130.448,71.878 128.36,74.413 126.344,77.018 C 124.346,79.599 122.442,82.262 120.617,84.968 C 115.262,92.906 110.677,101.418 107.191,110.341 C 106.685,111.637 106.206,112.942 105.753,114.258 C 105.323,115.509 104.903,116.763 104.526,118.031 C 104.139,119.333 103.754,120.641 103.428,121.96 C 103.135,123.145 102.841,124.331 102.595,125.527 C 101.923,128.802 101.431,132.064 101.232,135.404 C 101.113,137.395 101.13,139.357 101.269,141.346 C 101.439,143.784 101.91,146.287 102.815,148.562 C 104.483,146.237 105.723,143.565 106.804,140.925 C 107.723,138.681 108.551,136.383 109.329,134.086 C 109.67,133.078 109.995,132.064 110.338,131.057 C 110.721,129.932 111.073,128.794 111.442,127.664 C 111.851,126.411 112.259,125.158 112.66,123.903 C 113.019,122.778 113.401,121.659 113.763,120.535 C 114.326,118.788 114.932,117.05 115.524,115.312 C 116.262,113.144 117.034,110.976 117.836,108.831 C 118.215,107.818 118.604,106.81 118.986,105.799 C 119.391,104.727 119.824,103.659 120.254,102.596 C 120.931,100.924 121.616,99.248 122.346,97.598 C 123.385,95.252 124.419,92.901 125.551,90.597 C 126.673,88.313 127.804,86.039 129.014,83.799 C 129.881,82.193 130.777,80.613 131.682,79.029 C 132.258,78.021 132.863,77.027 133.466,76.035 C 135.2,73.186 137.025,70.401 138.942,67.672 C 146.504,56.909 155.546,47.051 166.097,39.155 C 163.317,41.243 160.54,43.341 157.829,45.519 Z" fill="#0a6eab" marker-start="none" marker-end="none" fill-opacity="1.000000"/>
   <path d="M 239.708,5.365 C 236.55,5.653 233.431,6.026 230.295,6.495 C 228.165,6.814 226.053,7.204 223.939,7.612 C 222.855,7.821 221.779,8.057 220.703,8.297 C 219.993,8.455 219.286,8.614 218.58,8.787 C 217.5,9.051 216.421,9.312 215.346,9.599 C 211.716,10.569 208.141,11.668 204.604,12.937 C 197.456,15.502 190.597,18.682 184.118,22.652 C 181.63,24.177 179.19,25.85 176.891,27.648 C 174.585,29.452 172.393,31.382 170.391,33.52 C 168.764,35.257 167.307,37.102 166.097,39.155 C 168.05,38.685 169.958,38.038 171.837,37.331 C 172.989,36.897 174.13,36.441 175.265,35.964 C 177.736,34.924 180.175,33.831 182.619,32.73 C 183.571,32.301 184.528,31.873 185.475,31.434 C 186.336,31.035 187.204,30.641 188.071,30.255 C 188.621,30.01 189.165,29.753 189.716,29.511 C 190.151,29.32 190.583,29.122 191.016,28.927 C 192.057,28.458 193.105,28.004 194.15,27.543 C 195.021,27.159 195.896,26.772 196.774,26.404 C 197.801,25.973 198.825,25.532 199.853,25.103 C 201.478,24.425 203.114,23.779 204.748,23.124 C 206.39,22.466 208.057,21.852 209.716,21.238 C 213.13,19.975 216.599,18.796 220.079,17.727 C 221.286,17.356 222.495,16.998 223.706,16.642 L 223.661,16.654 C 231.566,14.384 239.549,12.616 247.691,11.447 C 250.902,10.986 254.132,10.626 257.365,10.36 C 258.332,10.28 259.298,10.218 260.265,10.149 C 261.708,10.046 263.17,9.981 264.616,9.935 C 266.119,9.887 267.623,9.843 269.126,9.841 C 271.216,9.838 273.303,9.849 275.392,9.931 C 275.979,9.954 276.568,9.969 277.154,10.002 C 278.115,10.055 279.076,10.099 280.036,10.163 C 280.942,10.223 281.847,10.298 282.752,10.369 C 283.708,10.444 284.666,10.543 285.62,10.642 C 287.741,10.862 289.856,11.133 291.966,11.447 C 303.234,13.123 314.315,16.171 324.781,20.683 C 314.52,16.225 303.896,12.481 293.034,9.783 C 288.507,8.659 283.947,7.72 279.346,6.955 C 274.879,6.212 270.381,5.674 265.868,5.299 C 264.792,5.21 263.715,5.141 262.637,5.072 C 258.97,4.837 255.26,4.747 251.586,4.79 C 247.624,4.837 243.655,5.005 239.708,5.365 Z" fill="#1d9457" marker-start="none" marker-end="none" fill-opacity="1.000000"/>
   <path d="M 52.84,3.772 C 46.822,4.358 40.834,5.399 34.981,6.917 C 32.972,7.438 30.99,8.037 29.017,8.679 C 26.408,9.528 23.805,10.528 21.302,11.652 C 18.165,13.061 15.079,14.684 12.255,16.655 C 10.526,17.862 8.928,19.156 7.469,20.683 C 10.316,20.674 13.168,20.306 15.978,19.873 C 18.109,19.545 20.246,19.16 22.361,18.745 C 23.41,18.539 24.463,18.346 25.51,18.13 C 27.648,17.689 29.797,17.293 31.937,16.859 C 33.856,16.47 35.787,16.112 37.713,15.759 C 41.79,15.011 45.874,14.326 49.98,13.752 C 54.879,13.066 59.787,12.548 64.721,12.194 C 66.875,12.04 69.036,11.934 71.194,11.856 C 72.197,11.82 73.2,11.804 74.203,11.778 C 75.707,11.738 77.227,11.737 78.732,11.752 C 80.419,11.769 82.106,11.794 83.792,11.863 C 85.49,11.932 87.186,12.006 88.882,12.124 C 90.933,12.267 92.976,12.435 95.022,12.644 C 97.255,12.872 99.489,13.158 101.71,13.48 C 104.705,13.914 107.709,14.437 110.673,15.05 C 111.775,15.278 112.873,15.519 113.972,15.763 L 113.952,15.758 C 115.742,16.172 117.529,16.597 119.305,17.068 C 123.352,18.142 127.335,19.369 131.284,20.762 C 136.365,22.554 141.334,24.663 146.177,27.021 C 147.619,27.723 149.04,28.467 150.457,29.218 C 152.028,30.051 153.568,30.932 155.103,31.829 C 156.399,32.586 157.691,33.376 158.953,34.189 C 159.82,34.748 160.683,35.31 161.539,35.885 C 163.052,36.901 164.532,37.963 165.999,39.044 C 164.156,37.679 162.297,36.336 160.419,35.02 C 159.597,34.444 158.765,33.882 157.938,33.314 C 157.184,32.796 156.419,32.284 155.653,31.784 C 154.31,30.907 152.967,30.039 151.609,29.185 C 150.221,28.311 148.814,27.469 147.405,26.629 C 144.147,24.688 140.808,22.876 137.435,21.142 C 136.462,20.642 135.478,20.165 134.498,19.679 C 131.619,18.252 128.658,16.941 125.7,15.687 C 125.273,15.506 124.841,15.336 124.413,15.156 C 123.384,14.724 122.34,14.318 121.3,13.914 C 120.253,13.508 119.202,13.103 118.145,12.725 C 115.939,11.937 113.744,11.157 111.509,10.452 C 109.896,9.943 108.282,9.453 106.657,8.986 C 104.294,8.308 101.907,7.695 99.515,7.129 C 95.6,6.202 91.655,5.452 87.681,4.83 C 85.753,4.528 83.813,4.275 81.874,4.053 C 80.877,3.939 79.879,3.847 78.88,3.746 C 78.293,3.687 77.706,3.645 77.119,3.594 C 75.511,3.456 73.891,3.363 72.278,3.288 C 65.786,2.987 59.308,3.143 52.84,3.772 Z" fill="#a4c035" marker-start="none" marker-end="none" fill-opacity="1.000000"/>
   <path d="M 168.203,42.923 C 168.979,44.095 169.81,45.22 170.675,46.327 C 172.175,48.247 173.762,50.116 175.379,51.938 C 176.088,52.737 176.805,53.53 177.512,54.331 C 177.864,54.73 178.227,55.121 178.585,55.516 C 178.941,55.909 179.292,56.306 179.652,56.696 C 180.996,58.154 182.313,59.64 183.649,61.106 C 184.382,61.91 185.107,62.724 185.83,63.537 C 186.158,63.906 186.492,64.27 186.816,64.643 C 188.027,66.034 189.25,67.412 190.452,68.81 C 191.737,70.304 193.014,71.823 194.258,73.352 C 194.569,73.734 194.876,74.121 195.189,74.502 C 195.857,75.315 196.515,76.146 197.161,76.976 C 197.971,78.016 198.787,79.051 199.574,80.108 C 199.87,80.505 200.173,80.897 200.467,81.295 C 202.057,83.445 203.633,85.619 205.127,87.837 C 206.238,89.486 207.348,91.139 208.403,92.825 C 209.02,93.811 209.632,94.799 210.238,95.792 C 210.757,96.642 211.264,97.507 211.761,98.37 C 212.977,100.482 214.164,102.608 215.284,104.773 C 217.899,109.828 220.243,114.982 222.268,120.302 C 223.206,122.766 224.085,125.263 224.866,127.781 C 226.006,131.457 227.024,135.165 227.818,138.932 C 228.241,140.94 228.625,142.958 228.941,144.986 C 229.147,146.309 229.32,147.635 229.484,148.964 C 229.305,147.534 229.143,146.102 228.956,144.673 C 228.689,142.636 228.415,140.598 228.103,138.568 C 227.228,132.879 226.188,127.242 224.874,121.637 C 224.468,119.905 224.047,118.171 223.586,116.453 C 223.097,114.63 222.587,112.818 222.053,111.007 C 221.703,109.821 221.323,108.646 220.951,107.467 C 220.653,106.52 220.337,105.569 220.011,104.631 C 218.653,100.721 217.197,96.865 215.554,93.065 C 210.771,82 204.683,71.382 197.11,61.982 C 192.529,56.297 187.432,51.063 181.622,46.626 C 180.528,45.79 179.396,45.008 178.248,44.248 C 177.216,43.565 176.141,42.931 175.058,42.333 C 172.265,40.79 169.171,39.508 165.999,39.044 C 166.616,40.401 167.381,41.682 168.203,42.923 Z" fill="#1d9457" marker-start="none" marker-end="none" fill-opacity="1.000000"/>
   <path d="M 228.184,154.833 C 227.908,156.484 227.677,158.151 227.482,159.813 C 227.297,161.393 227.123,162.972 226.961,164.555 C 226.864,165.499 226.76,166.445 226.674,167.39 C 226.583,168.396 226.48,169.404 226.378,170.409 C 226.25,171.666 226.136,172.924 226.002,174.18 C 225.881,175.312 225.773,176.445 225.649,177.577 C 225.432,179.56 225.207,181.546 224.954,183.525 C 224.638,185.99 224.31,188.456 223.927,190.912 C 223.769,191.927 223.601,192.94 223.438,193.954 C 223.26,195.065 223.063,196.179 222.857,197.285 C 222.315,200.199 221.734,203.091 221.087,205.984 C 220.79,207.31 220.459,208.627 220.148,209.949 L 220.164,209.895 C 219.853,211.11 219.549,212.325 219.218,213.535 C 218.384,216.588 217.506,219.623 216.522,222.631 C 214.576,228.578 212.33,234.395 209.745,240.094 C 209.021,241.691 208.26,243.265 207.491,244.841 C 207.127,245.587 206.751,246.339 206.364,247.074 C 205.951,247.859 205.545,248.646 205.126,249.428 C 204.949,249.759 204.764,250.087 204.587,250.418 C 204.132,251.267 203.655,252.112 203.175,252.947 C 202.682,253.805 202.193,254.672 201.675,255.515 C 201.184,256.313 200.715,257.123 200.215,257.916 C 198.804,260.154 197.364,262.373 195.843,264.537 C 194.558,266.364 193.244,268.193 191.868,269.952 C 191.112,270.918 190.356,271.879 189.585,272.834 C 187.085,275.929 184.423,278.935 181.654,281.792 C 178.3,285.253 174.755,288.572 171.031,291.633 C 169.43,292.949 167.806,294.208 166.153,295.458 C 169.122,293.226 172.064,290.969 174.933,288.608 C 177.401,286.577 179.824,284.493 182.2,282.356 C 187.347,277.725 192.251,272.762 196.827,267.566 C 209.255,253.455 219.286,237.327 226.017,219.75 C 229.046,211.841 231.397,203.64 232.909,195.305 C 233.381,192.704 233.785,190.074 234.074,187.446 C 234.218,186.14 234.362,184.827 234.453,183.516 C 234.59,181.54 234.732,179.562 234.755,177.58 C 234.769,176.41 234.793,175.243 234.77,174.072 C 234.706,170.722 234.51,167.355 234.034,164.036 C 233.846,162.727 233.635,161.414 233.367,160.118 C 233.151,159.074 232.903,158.055 232.64,157.022 C 232.476,156.376 232.278,155.744 232.086,155.107 C 231.971,154.724 231.842,154.345 231.71,153.968 C 231.099,152.224 230.391,150.577 229.484,148.964 C 228.903,150.876 228.513,152.864 228.184,154.833 Z" fill="#a4c035" marker-start="none" marker-end="none" fill-opacity="1.000000"/>
   <path d="M 323.099,23.984 C 322.424,25.448 321.808,26.947 321.231,28.453 C 320.636,30.007 320.061,31.568 319.513,33.14 C 318.999,34.617 318.473,36.091 317.977,37.574 C 317.561,38.817 317.137,40.059 316.711,41.298 C 316.224,42.714 315.746,44.133 315.258,45.549 C 314.939,46.475 314.607,47.396 314.288,48.322 C 313.969,49.247 313.63,50.168 313.298,51.088 C 312.966,52.009 312.633,52.932 312.285,53.848 C 311.995,54.611 311.712,55.378 311.423,56.142 C 310.816,57.747 310.183,59.35 309.538,60.941 C 305.486,70.935 300.736,80.691 295.061,89.868 C 294.318,91.069 293.569,92.265 292.802,93.451 C 292.278,94.261 291.73,95.056 291.201,95.863 C 290.689,96.644 290.147,97.428 289.605,98.189 C 288.674,99.497 287.755,100.809 286.791,102.094 C 286.168,102.924 285.545,103.752 284.913,104.575 C 284.243,105.448 283.551,106.307 282.864,107.167 C 281.336,109.08 279.734,110.959 278.113,112.794 C 277.348,113.66 276.565,114.508 275.806,115.348 C 275.383,115.796 274.964,116.252 274.538,116.701 C 273.777,117.502 273.003,118.288 272.232,119.079 C 271.636,119.69 271.028,120.3 270.414,120.892 C 269.536,121.738 268.667,122.593 267.77,123.419 C 267.054,124.078 266.34,124.736 265.618,125.388 C 264.407,126.483 263.162,127.549 261.912,128.6 C 260.667,129.646 259.402,130.678 258.118,131.675 C 256.789,132.707 255.454,133.729 254.092,134.717 C 251.674,136.472 249.195,138.145 246.672,139.744 C 245.17,140.696 243.632,141.619 242.09,142.506 C 241.782,142.683 241.469,142.854 241.16,143.031 C 238.494,144.557 235.738,145.949 232.965,147.267 C 231.794,147.824 230.607,148.34 229.422,148.865 C 230.365,148.45 231.308,148.035 232.252,147.622 C 233.197,147.208 234.137,146.772 235.073,146.339 C 236.415,145.718 237.756,145.089 239.085,144.44 C 242.06,142.987 244.988,141.464 247.894,139.876 C 251.327,138 254.719,135.994 258.018,133.892 C 259.017,133.255 260.024,132.614 261.007,131.953 C 261.362,131.715 261.714,131.471 262.071,131.236 C 262.531,130.933 262.98,130.613 263.437,130.306 C 263.819,130.049 264.195,129.784 264.571,129.518 C 265.376,128.949 266.18,128.382 266.98,127.806 C 267.859,127.174 268.718,126.517 269.588,125.874 C 270.038,125.542 270.477,125.197 270.922,124.858 C 271.839,124.161 272.746,123.443 273.642,122.72 C 274.541,121.994 275.455,121.269 276.332,120.517 C 277.143,119.821 277.976,119.144 278.777,118.437 C 279.733,117.594 280.691,116.751 281.631,115.89 C 284.699,113.082 287.652,110.181 290.507,107.156 C 292.104,105.465 293.651,103.722 295.171,101.962 C 295.871,101.151 296.547,100.323 297.235,99.503 C 297.617,99.048 297.982,98.581 298.358,98.122 C 299.444,96.797 300.483,95.419 301.512,94.049 C 304.474,90.108 307.241,85.973 309.768,81.74 C 311.254,79.25 312.642,76.723 313.98,74.151 C 314.96,72.267 315.865,70.337 316.749,68.407 C 317.476,66.821 318.142,65.215 318.804,63.601 C 319.418,62.104 319.99,60.576 320.53,59.051 C 321.243,57.036 321.909,55.005 322.504,52.952 C 324.001,47.788 325.133,42.519 325.686,37.167 C 325.922,34.886 326.056,32.584 326.029,30.29 C 325.991,27.018 325.686,23.839 324.781,20.683 C 324.157,21.75 323.616,22.863 323.099,23.984 Z" fill="#0a6eab" marker-start="none" marker-end="none" fill-opacity="1.000000"/>
   <path d="M 106.454,150.375 C 108.351,151.163 110.25,151.947 112.163,152.698 C 117.511,154.797 122.93,156.734 128.431,158.394 C 130.136,158.908 131.845,159.414 133.564,159.878 C 137.539,160.951 141.545,161.917 145.586,162.71 C 148.836,163.348 152.085,163.885 155.365,164.339 C 156.596,164.509 157.831,164.643 159.065,164.789 C 160.158,164.919 161.269,165.029 162.366,165.118 C 163.539,165.213 164.711,165.315 165.885,165.389 C 166.299,165.415 166.714,165.434 167.128,165.459 C 169.82,165.624 172.541,165.684 175.238,165.678 C 181.53,165.663 187.754,165.214 193.976,164.272 C 196.454,163.897 198.953,163.432 201.395,162.865 C 202.008,162.723 202.624,162.581 203.235,162.43 C 203.711,162.313 204.182,162.179 204.657,162.059 C 205.57,161.827 206.489,161.565 207.391,161.293 C 207.827,161.161 208.26,161.019 208.696,160.887 C 209.165,160.745 209.631,160.587 210.095,160.428 C 210.628,160.246 211.158,160.068 211.687,159.874 C 212.876,159.439 214.058,158.987 215.224,158.493 C 216.422,157.985 217.611,157.432 218.774,156.848 C 219.886,156.29 220.963,155.687 222.03,155.048 C 224.766,153.411 227.428,151.37 229.422,148.865 C 227.937,148.716 226.447,148.736 224.96,148.824 C 223.556,148.907 222.171,149.063 220.779,149.255 C 218.366,149.588 215.949,150.02 213.562,150.508 C 212.516,150.722 211.47,150.942 210.424,151.153 C 208.604,151.52 206.788,151.93 204.973,152.322 C 203.36,152.67 201.744,153.015 200.128,153.351 C 199.032,153.579 197.936,153.816 196.838,154.031 C 194.35,154.519 191.866,155.017 189.368,155.456 C 188.103,155.678 186.836,155.893 185.569,156.103 C 185.082,156.184 184.592,156.252 184.105,156.333 C 183.618,156.414 183.128,156.482 182.64,156.556 C 181.369,156.749 180.097,156.927 178.822,157.092 C 175.09,157.576 171.337,157.988 167.582,158.249 C 164.302,158.477 161.023,158.641 157.735,158.691 C 155.198,158.73 152.672,158.702 150.136,158.636 C 148.931,158.605 147.73,158.533 146.527,158.482 C 145.992,158.459 145.457,158.422 144.923,158.387 C 144.388,158.352 143.852,158.321 143.318,158.275 C 142.147,158.174 140.977,158.091 139.807,157.972 C 137.929,157.781 136.065,157.558 134.194,157.308 C 132.989,157.147 131.792,156.947 130.591,156.759 C 129.426,156.576 128.253,156.363 127.096,156.135 C 126.098,155.938 125.104,155.743 124.109,155.529 C 122.118,155.101 120.137,154.614 118.167,154.096 C 117.445,153.906 116.719,153.704 116.001,153.498 C 115.542,153.366 115.087,153.222 114.628,153.091 C 114.169,152.96 113.714,152.815 113.259,152.671 C 112.607,152.464 111.956,152.262 111.309,152.042 C 110.922,151.91 110.531,151.786 110.144,151.653 C 108.724,151.165 107.298,150.645 105.903,150.091 C 104.754,149.635 103.619,149.163 102.481,148.68 C 103.807,149.24 105.124,149.823 106.454,150.375 Z" fill="#a4c035" marker-start="none" marker-end="none" fill-opacity="1.000000"/>
   <path d="M 10.789,41.149 C 11.331,43.666 11.932,46.156 12.556,48.653 C 12.947,50.218 13.398,51.767 13.823,53.322 C 14.035,54.098 14.272,54.879 14.507,55.649 C 15.075,57.516 15.665,59.364 16.281,61.215 C 16.879,63.013 17.521,64.819 18.197,66.589 C 18.675,67.84 19.153,69.087 19.651,70.33 C 20.395,72.187 21.183,74.031 21.997,75.858 C 22.989,78.083 24.033,80.268 25.114,82.45 C 25.805,83.845 26.537,85.22 27.268,86.594 C 28.12,88.194 29.019,89.788 29.936,91.352 C 30.149,91.715 30.368,92.076 30.58,92.44 C 31.148,93.412 31.749,94.368 32.341,95.326 C 33.098,96.55 33.885,97.77 34.688,98.965 C 36.295,101.357 37.939,103.737 39.685,106.03 C 40.629,107.269 41.572,108.503 42.548,109.718 C 43.568,110.988 44.61,112.228 45.663,113.47 C 46.962,115.002 48.324,116.506 49.699,117.972 C 50.006,118.299 50.319,118.622 50.626,118.949 C 51.942,120.351 53.324,121.713 54.707,123.048 C 56.672,124.945 58.703,126.784 60.788,128.547 C 62.803,130.251 64.866,131.908 66.992,133.47 C 68.05,134.247 69.109,135.019 70.195,135.758 C 71.827,136.868 73.47,137.967 75.166,138.978 C 76.168,139.576 77.167,140.175 78.187,140.742 C 81.1,142.362 84.12,143.863 87.214,145.106 C 89.919,146.193 92.656,147.118 95.497,147.783 C 97.794,148.32 100.12,148.657 102.481,148.68 C 101.563,147.699 100.572,146.785 99.561,145.901 C 98.153,144.669 96.681,143.49 95.191,142.359 C 93.925,141.398 92.652,140.454 91.372,139.511 C 90.356,138.763 89.325,138.033 88.304,137.292 C 86.369,135.888 84.409,134.516 82.479,133.104 C 79.933,131.241 77.371,129.399 74.867,127.478 C 73.48,126.415 72.098,125.35 70.724,124.271 C 69.846,123.581 68.984,122.872 68.11,122.178 C 67.105,121.381 66.134,120.542 65.143,119.728 C 64.147,118.91 63.181,118.055 62.2,117.218 C 61.757,116.84 61.327,116.447 60.887,116.065 C 58.712,114.176 56.62,112.188 54.528,110.208 L 54.567,110.248 C 53.372,109.081 52.181,107.913 51.007,106.725 C 49.656,105.358 48.323,103.959 47.022,102.544 C 46.096,101.536 45.168,100.528 44.266,99.498 C 42.093,97.018 39.983,94.5 37.948,91.906 C 36.461,90.011 35.028,88.081 33.622,86.126 C 32.678,84.813 31.765,83.479 30.863,82.137 C 30.04,80.913 29.223,79.673 28.446,78.419 C 27.951,77.62 27.451,76.826 26.964,76.022 C 25.802,74.103 24.67,72.142 23.603,70.169 C 22.623,68.357 21.669,66.537 20.755,64.69 C 19.136,61.416 17.65,58.074 16.279,54.688 C 15.56,52.911 14.884,51.117 14.24,49.312 C 13.597,47.51 12.981,45.691 12.42,43.862 C 12.17,43.048 11.93,42.234 11.687,41.418 C 11.445,40.606 11.215,39.781 11,38.962 C 10.635,37.574 10.267,36.188 9.945,34.789 C 9.617,33.364 9.311,31.942 9.018,30.509 C 8.353,27.258 7.866,23.976 7.469,20.683 C 8.28,27.556 9.332,34.381 10.789,41.149 Z" fill="#0a6eab" marker-start="none" marker-end="none" fill-opacity="1.000000"/>
   <path d="M 34.95,43.528 C 34.918,44.168 34.904,44.817 34.91,45.457 C 34.949,49.591 35.547,53.803 36.527,57.817 C 36.898,59.336 37.295,60.841 37.76,62.335 C 38.308,64.096 38.897,65.843 39.563,67.564 C 39.964,68.601 40.378,69.627 40.811,70.651 C 41.442,72.142 42.125,73.63 42.844,75.08 C 44.863,79.156 47.116,83.079 49.654,86.855 C 50.604,88.269 51.584,89.645 52.589,91.02 C 53.034,91.629 53.493,92.24 53.958,92.834 C 54.662,93.733 55.371,94.618 56.088,95.507 C 56.819,96.413 57.583,97.303 58.348,98.18 C 59.638,99.658 60.965,101.115 62.329,102.524 C 63.99,104.24 65.69,105.924 67.447,107.542 C 69.532,109.462 71.658,111.304 73.853,113.096 C 74.711,113.809 75.608,114.508 76.495,115.188 C 78.639,116.832 80.806,118.414 83.035,119.941 C 87.267,122.841 91.675,125.518 96.183,127.968 C 98.153,129.038 100.138,130.058 102.144,131.058 L 109.402,134.335 L 109.471,134.372 C 111.162,135.192 112.866,135.951 114.597,136.682 L 109.402,134.335 L 104.282,131.651 C 102.579,130.694 100.904,129.688 99.255,128.643 C 96.054,126.615 92.995,124.389 90.012,122.055 C 89.017,121.277 88.031,120.467 87.07,119.647 C 85.39,118.214 83.755,116.757 82.146,115.245 C 80.312,113.522 78.555,111.724 76.839,109.913 C 75.601,108.579 74.392,107.231 73.197,105.854 C 72.342,104.869 71.518,103.857 70.692,102.847 C 70.226,102.277 69.763,101.694 69.314,101.11 C 68.754,100.382 68.186,99.66 67.642,98.92 C 66.886,97.891 66.13,96.867 65.395,95.822 C 64.115,94.001 62.876,92.142 61.687,90.26 C 59.107,86.177 56.708,81.925 54.554,77.601 C 52.629,73.736 50.858,69.824 49.194,65.839 C 47.468,61.704 45.891,57.509 44.315,53.315 C 43.743,51.792 43.164,50.271 42.587,48.749 C 41.653,46.286 40.659,43.831 39.559,41.438 C 38.672,39.509 37.64,37.513 36.408,35.782 C 35.451,38.276 35.081,40.873 34.95,43.528 Z" fill="#a4c035" marker-start="none" marker-end="none" fill-opacity="1.000000"/>
   <path d="M 114.597,136.682 C 116.959,140.13 120.761,142.577 124.473,144.367 C 126.844,145.51 129.304,146.433 131.815,147.216 C 136.172,148.575 140.704,149.465 145.23,150.03 C 157.898,151.61 170.861,150.599 183.331,148.034 C 186.645,147.352 189.924,146.526 193.186,145.632 C 194.863,145.172 196.529,144.658 198.192,144.148 C 200.06,143.574 201.929,142.944 203.774,142.298 C 206.726,141.264 209.666,140.174 212.572,139.016 C 213.609,138.603 214.648,138.19 215.68,137.766 C 216.663,137.362 217.643,136.947 218.629,136.552 C 217.539,136.991 216.453,137.431 215.348,137.832 C 213.304,138.573 211.232,139.244 209.141,139.837 C 205.496,140.87 201.824,141.65 198.091,142.287 C 194.431,142.912 190.707,143.312 187.004,143.568 C 176.456,144.298 165.838,143.644 155.384,142.14 C 151.138,141.529 146.899,140.79 142.688,139.975 C 140.581,139.567 138.477,139.146 136.37,138.736 C 134.466,138.365 132.563,137.98 130.653,137.64 C 127.67,137.11 124.671,136.613 121.646,136.395 C 119.34,136.229 116.867,136.204 114.597,136.682 Z" fill="#0a6eab" marker-start="none" marker-end="none" fill-opacity="1.000000"/>
   <path d="M 295.777,40.798 C 295.547,42.031 295.309,43.262 295.033,44.486 C 294.89,45.12 294.737,45.749 294.587,46.381 C 294.006,48.825 293.283,51.239 292.511,53.629 C 291.752,55.976 290.884,58.324 289.942,60.604 C 288.731,63.534 287.419,66.388 285.973,69.21 C 284.642,71.808 283.189,74.345 281.665,76.834 C 280.958,77.989 280.221,79.146 279.465,80.269 C 278.477,81.735 277.483,83.2 276.432,84.622 C 275.924,85.309 275.423,86.004 274.9,86.679 C 274.375,87.356 273.86,88.044 273.321,88.709 C 272.835,89.31 272.356,89.916 271.863,90.511 C 270.736,91.871 269.589,93.226 268.406,94.537 C 267.007,96.088 265.59,97.606 264.134,99.104 C 261.969,101.331 259.709,103.467 257.418,105.564 L 257.455,105.527 C 255.896,106.928 254.328,108.317 252.724,109.666 C 251.932,110.332 251.132,110.991 250.332,111.648 C 249.696,112.171 249.046,112.677 248.406,113.195 C 247.691,113.773 246.958,114.345 246.227,114.903 C 244.948,115.88 243.675,116.857 242.383,117.817 C 240.101,119.514 237.796,121.188 235.477,122.834 C 234.317,123.657 233.159,124.484 232.006,125.317 C 229.971,126.788 227.932,128.251 225.95,129.794 C 224.643,130.811 223.351,131.85 222.121,132.959 C 220.875,134.083 219.687,135.246 218.629,136.552 C 220.316,136.703 222.018,136.633 223.695,136.399 C 224.021,136.354 224.346,136.297 224.671,136.244 C 227.415,135.793 230.128,134.935 232.721,133.943 C 235.143,133.017 237.51,131.884 239.792,130.655 C 243.836,128.476 247.67,125.919 251.299,123.106 C 252.411,122.244 253.497,121.347 254.573,120.441 C 255.398,119.747 256.212,119.029 257.008,118.302 C 257.664,117.703 258.321,117.102 258.962,116.487 C 259.647,115.83 260.319,115.163 260.993,114.495 C 261.682,113.813 262.362,113.102 263.022,112.392 C 263.219,112.18 263.421,111.955 263.626,111.754 C 263.754,111.629 263.88,111.475 264.002,111.341 C 264.253,111.066 264.505,110.792 264.753,110.514 C 265.474,109.708 266.185,108.898 266.887,108.075 C 269.428,105.097 271.788,101.984 274.021,98.769 C 275.033,97.312 275.99,95.819 276.943,94.323 C 277.954,92.735 278.915,91.087 279.84,89.447 C 280.202,88.805 280.548,88.154 280.906,87.51 C 281.338,86.733 281.732,85.935 282.147,85.149 C 282.477,84.525 282.796,83.882 283.102,83.246 C 284.093,81.184 285.066,79.127 285.956,77.018 C 286.566,75.573 287.162,74.124 287.721,72.658 C 288.468,70.7 289.169,68.732 289.833,66.744 C 290.535,64.643 291.192,62.497 291.777,60.36 C 292.053,59.354 292.316,58.348 292.581,57.339 C 292.904,56.111 293.195,54.872 293.477,53.634 C 294.062,51.071 294.588,48.488 295.04,45.898 C 295.363,44.045 295.681,42.177 295.932,40.314 C 296.021,39.652 296.119,38.99 296.208,38.328 C 296.322,37.48 296.425,36.631 296.534,35.782 C 296.316,37.459 296.088,39.135 295.777,40.798 Z" fill="#a4c035" marker-start="none" marker-end="none" fill-opacity="1.000000"/>
   <path d="M 216.262,31.027 C 213.677,31.908 211.102,32.881 208.58,33.93 C 207.369,34.434 206.157,34.943 204.962,35.483 C 203.316,36.228 201.694,36.993 200.07,37.785 C 197.94,38.824 195.814,39.936 193.747,41.095 C 191.311,42.461 188.892,43.865 186.53,45.355 C 184.129,46.87 181.757,48.431 179.428,50.055 C 176.644,51.996 173.915,54.014 171.225,56.083 C 173.123,54.632 175.046,53.264 177.04,51.949 C 179.297,50.461 181.625,49.094 183.99,47.787 C 186.313,46.504 188.718,45.315 191.136,44.221 C 198.258,40.998 205.661,38.519 213.274,36.746 L 213.252,36.753 C 215.372,36.267 217.485,35.831 219.625,35.44 C 222.895,34.842 226.183,34.411 229.487,34.057 C 231.218,33.872 232.963,33.737 234.7,33.627 C 237.523,33.448 240.365,33.35 243.193,33.349 C 245.658,33.348 248.108,33.411 250.57,33.516 C 251.263,33.546 251.965,33.577 252.657,33.626 C 254.386,33.748 256.116,33.85 257.841,34.019 C 258.613,34.095 259.385,34.165 260.156,34.244 C 261.862,34.419 263.565,34.626 265.267,34.842 C 268.228,35.218 271.18,35.679 274.128,36.146 C 275.286,36.329 276.441,36.534 277.598,36.717 C 278.44,36.85 279.28,37 280.122,37.135 C 281.2,37.308 282.279,37.482 283.356,37.661 C 284.505,37.852 285.663,38.016 286.816,38.18 C 288.022,38.352 289.251,38.515 290.464,38.626 C 290.863,38.662 291.261,38.706 291.66,38.738 C 293.66,38.896 295.662,38.976 297.665,38.803 C 297.325,38.388 296.975,37.979 296.602,37.593 C 293.624,34.509 289.649,32.241 285.756,30.514 C 282.58,29.105 279.252,28.009 275.89,27.144 C 270.854,25.848 265.618,25.061 260.43,24.724 C 245.386,23.748 230.495,26.177 216.262,31.027 Z" fill="#0a6eab" marker-start="none" marker-end="none" fill-opacity="1.000000"/>
   <path d="M 161.08,59.838 C 158.319,61.56 155.804,63.577 153.414,65.78 C 150.066,68.866 147.091,72.316 144.332,75.931 C 142.595,78.207 140.98,80.592 139.458,83.016 C 138.063,85.238 136.729,87.528 135.509,89.851 C 134.979,90.861 134.447,91.874 133.947,92.899 C 133.448,93.922 132.949,94.947 132.476,95.982 C 131.084,99.033 129.796,102.123 128.636,105.27 C 126.29,111.633 124.447,118.112 122.948,124.723 C 121.825,129.678 120.949,134.714 120.203,139.739 C 119.883,141.896 119.603,144.055 119.31,146.215 C 119.532,144.551 119.793,142.9 120.113,141.251 C 120.759,137.92 121.608,134.622 122.612,131.381 C 123.213,129.443 123.881,127.547 124.582,125.644 C 125.199,123.968 125.878,122.286 126.593,120.65 C 127.057,119.59 127.521,118.531 128.011,117.483 C 128.918,115.544 129.872,113.628 130.872,111.735 C 134.289,105.268 138.3,99.038 142.657,93.166 C 143.78,91.652 144.915,90.147 146.084,88.668 C 148.75,85.297 151.498,82.013 154.308,78.761 C 155.571,77.3 156.852,75.854 158.119,74.396 C 158.683,73.747 159.247,73.096 159.816,72.451 C 160.67,71.483 161.519,70.496 162.35,69.508 C 164.306,67.184 166.228,64.845 167.94,62.332 C 169.258,60.397 170.471,58.307 171.225,56.083 C 167.641,56.34 164.097,57.956 161.08,59.838 Z" fill="#1d9457" marker-start="none" marker-end="none" fill-opacity="1.000000"/>
   <path d="M 114.517,159.712 C 114.107,162.282 113.909,164.881 113.821,167.48 C 113.766,169.116 113.787,170.745 113.835,172.38 C 113.878,173.849 113.968,175.339 114.106,176.803 C 114.199,177.788 114.29,178.77 114.411,179.752 C 114.644,181.642 114.931,183.519 115.272,185.393 C 115.991,189.339 116.953,193.218 118.122,197.054 C 119.33,201.017 120.74,204.932 122.378,208.74 C 124.024,212.568 125.834,216.275 127.856,219.919 C 128.648,221.346 129.469,222.774 130.329,224.162 C 131.23,225.617 132.132,227.069 133.089,228.489 C 134.807,231.037 136.586,233.543 138.481,235.963 C 139.511,237.279 140.556,238.577 141.63,239.858 C 142.46,240.848 143.312,241.819 144.166,242.789 C 146.307,245.22 148.581,247.554 150.89,249.825 C 152.712,251.616 154.595,253.346 156.507,255.041 C 157.934,256.306 159.391,257.552 160.867,258.759 C 163.088,260.575 165.336,262.329 167.623,264.062 C 166.29,263.048 164.986,262.021 163.705,260.942 C 161.863,259.39 160.106,257.761 158.383,256.078 C 157.844,255.552 157.317,255.011 156.793,254.47 C 154.899,252.516 153.08,250.473 151.353,248.37 C 150.632,247.492 149.932,246.602 149.235,245.705 C 146.962,242.781 144.872,239.696 142.914,236.554 C 141.344,234.034 139.903,231.446 138.529,228.815 C 137.428,226.709 136.391,224.538 135.432,222.364 C 133.708,218.455 132.194,214.508 130.842,210.456 C 130.485,209.386 130.154,208.307 129.824,207.229 C 128.623,203.308 127.609,199.304 126.745,195.296 L 126.754,195.33 C 126.428,193.788 126.107,192.25 125.811,190.702 C 125.548,189.329 125.32,187.952 125.083,186.575 C 124.931,185.69 124.795,184.796 124.665,183.907 C 124.457,182.487 124.246,181.067 124.069,179.643 C 123.968,178.833 123.862,178.024 123.764,177.214 C 123.381,174.039 123.047,170.846 122.753,167.661 C 122.622,166.244 122.477,164.828 122.338,163.412 C 122.094,160.915 121.843,158.41 121.496,155.925 C 121.267,154.283 121.01,152.652 120.67,151.029 C 120.328,149.399 119.905,147.772 119.31,146.215 C 116.569,150.114 115.259,155.059 114.517,159.712 Z" fill="#0a6eab" marker-start="none" marker-end="none" fill-opacity="1.000000"/>
   <path d="M 213.138,151.117 C 213.497,158.843 212.981,166.582 211.691,174.206 C 211.152,177.39 210.491,180.559 209.696,183.689 C 209.454,184.641 209.206,185.599 208.939,186.544 C 208.676,187.475 208.402,188.4 208.133,189.329 L 208.14,189.3 C 207.994,189.755 207.86,190.214 207.715,190.669 C 207.302,191.968 206.869,193.261 206.419,194.548 C 205.882,196.082 205.31,197.61 204.71,199.12 C 204.235,200.316 203.755,201.511 203.242,202.692 C 202.806,203.697 202.361,204.693 201.909,205.69 C 201.02,207.653 200.062,209.613 199.061,211.521 C 197.496,214.504 195.868,217.446 194.102,220.316 C 192.722,222.557 191.299,224.794 189.804,226.96 C 188.651,228.63 187.486,230.279 186.291,231.919 C 181.914,237.928 177.106,243.624 172.408,249.381 C 171.357,250.669 170.311,251.978 169.31,253.306 C 168.577,254.278 167.852,255.247 167.161,256.251 C 166.039,257.882 164.973,259.572 164.145,261.374 C 168.907,260.582 173.424,257.999 177.281,255.184 C 181.16,252.353 184.622,249.014 187.813,245.435 C 189.192,243.888 190.513,242.263 191.766,240.613 C 192.873,239.155 193.949,237.665 194.964,236.141 C 197.457,232.398 199.709,228.522 201.694,224.486 C 205.256,217.242 207.991,209.677 209.995,201.86 C 210.975,198.037 211.744,194.186 212.39,190.294 C 212.606,188.991 212.78,187.671 212.956,186.36 C 213.581,181.706 213.925,176.989 214.083,172.297 C 214.28,166.443 214.094,160.552 213.654,154.712 C 213.556,153.411 213.427,152.114 213.31,150.815 C 213.083,148.284 212.758,145.746 212.433,143.225 C 212.764,145.855 213.015,148.469 213.138,151.117 Z" fill="#1d9457" marker-start="none" marker-end="none" fill-opacity="1.000000"/>
   <path d="M 164.304,56.461 C 165.999,57.954 167.643,59.488 169.228,61.099 C 178.052,70.068 185.128,80.623 190.778,91.835 C 192.967,96.178 194.937,100.632 196.753,105.143 C 197.927,108.058 199.011,111.004 200.079,113.959 C 200.617,115.448 201.12,116.949 201.649,118.441 C 201.972,119.35 202.269,120.269 202.586,121.18 C 203.196,122.933 203.788,124.693 204.396,126.447 C 204.67,127.238 204.941,128.033 205.23,128.819 C 205.624,129.891 206.004,130.974 206.424,132.035 C 206.79,132.958 207.15,133.882 207.539,134.795 C 207.892,135.624 208.266,136.44 208.656,137.252 C 209.662,139.348 210.887,141.48 212.433,143.225 C 212.713,142.642 212.969,142.029 213.176,141.416 C 213.855,139.409 214.148,137.208 214.232,135.097 C 214.266,134.252 214.275,133.4 214.246,132.555 C 214.137,129.311 213.641,126.097 212.923,122.935 C 211.918,118.51 210.43,114.167 208.663,109.991 C 207.092,106.28 205.287,102.716 203.296,99.214 C 202.508,97.828 201.683,96.438 200.82,95.097 C 200.573,94.713 200.333,94.326 200.085,93.943 C 199.154,92.509 198.198,91.086 197.207,89.693 C 196.381,88.532 195.536,87.393 194.679,86.255 C 193.726,84.99 192.735,83.734 191.725,82.514 C 190.426,80.944 189.116,79.385 187.752,77.87 C 186.296,76.253 184.81,74.68 183.3,73.114 C 182.169,71.941 180.994,70.805 179.827,69.669 C 179.185,69.044 178.528,68.425 177.87,67.817 C 177.046,67.056 176.226,66.292 175.387,65.549 C 174.381,64.658 173.374,63.774 172.361,62.89 C 171.603,62.229 170.827,61.585 170.056,60.939 C 168.602,59.72 167.125,58.524 165.641,57.342 C 163.871,55.933 162.075,54.562 160.29,53.173 C 161.658,54.23 163.007,55.318 164.304,56.461 Z" fill="#a4c035" marker-start="none" marker-end="none" fill-opacity="1.000000"/>
   <path d="M 82.953,23.928 C 80.304,24.073 77.636,24.325 75.004,24.651 C 72.959,24.904 70.907,25.193 68.878,25.551 C 67.159,25.855 65.44,26.161 63.734,26.532 C 61.787,26.955 59.86,27.403 57.928,27.891 C 53.622,28.978 49.384,30.314 45.193,31.777 C 41.45,33.083 37.727,34.549 34.085,36.115 C 40.407,33.408 47.136,31.453 53.896,30.206 C 57.394,29.561 60.908,29.086 64.453,28.789 C 65.947,28.664 67.439,28.579 68.936,28.509 C 70.515,28.435 72.11,28.399 73.691,28.404 C 77.21,28.415 80.684,28.558 84.19,28.864 C 84.933,28.929 85.68,28.995 86.421,29.079 C 88.145,29.273 89.866,29.477 91.581,29.737 C 93.608,30.044 95.617,30.394 97.63,30.783 C 103.201,31.861 108.696,33.355 114.102,35.069 L 114.057,35.058 C 119.238,36.708 124.301,38.652 129.32,40.737 C 131.08,41.468 132.845,42.223 134.582,43.006 C 136.386,43.819 138.202,44.608 139.997,45.439 C 141.287,46.037 142.586,46.62 143.882,47.205 C 146.167,48.237 148.46,49.274 150.784,50.214 C 152.844,51.047 154.927,51.841 157.068,52.444 C 158.128,52.742 159.201,53.003 160.29,53.173 C 158.289,48.846 154.646,45.253 150.994,42.278 C 148.986,40.642 146.817,39.16 144.617,37.795 C 139.537,34.644 134.018,32.112 128.395,30.096 C 117.085,26.042 105.005,24.016 93.008,23.737 C 89.646,23.659 86.309,23.745 82.953,23.928 Z" fill="#1d9457" marker-start="none" marker-end="none" fill-opacity="1.000000"/>
  </g>
 </g>
</svg>
